<svg id="Layer_1" data-name="Layer 1" xmlns="http://www.w3.org/2000/svg" viewBox="0 0 2918.64 2545.47"><defs><style>.cls-1{fill:#75a928;}.cls-2{fill:#bc1142;}.cls-3{fill:#020202;}</style></defs><title>Artboard 1</title><path d="M1014.07,45.5c-12.64.39-26.24,5.07-41.69,17.24-37.8-14.57-74.48-19.64-107.26,10-50.63-6.57-67.08,7-79.55,22.81-11.12-.23-83.17-11.43-116.21,37.87-83-9.83-109.28,48.84-79.55,103.55-17,26.25-34.53,52.19,5.13,102.24-14,27.88-5.33,58.12,27.72,94.71-8.72,39.2,8.42,66.84,39.17,88.39C656.08,576,711,607.16,727.41,618.26c6.3,31.25,19.42,60.74,82.16,77,10.35,46.57,48.06,54.61,84.57,64.38C773.46,829.83,670,922.13,670.67,1148.6L653,1180.13c-138.38,84.15-262.88,354.63-68.19,574.47,12.71,68.82,34,118.25,53,173,28.4,220.44,213.76,323.66,262.65,335.87,71.64,54.57,147.94,106.34,251.2,142.62,97.32,100.38,202.77,138.64,308.79,138.58,1.56,0,216.17-38.2,313.51-138.58,103.24-36.28,179.54-88.05,251.19-142.62,48.88-12.21,234.24-115.43,262.64-335.87,19-54.7,40.32-104.13,53-173,194.67-219.86,70.18-490.35-68.19-574.5L2255,1148.56c.7-226.44-102.79-318.74-223.48-388.91,36.51-9.77,74.23-17.81,84.57-64.38,62.74-16.31,75.87-45.79,82.16-77,16.41-11.1,71.33-42.29,65.59-95.91,30.74-21.55,47.89-49.2,39.16-88.39,33.06-36.59,41.75-66.84,27.72-94.71,39.68-50,22.07-76,5.13-102.22,29.72-54.71,3.5-113.38-79.57-103.55-33-49.29-105.07-38.1-116.21-37.87-12.46-15.82-28.91-29.37-79.54-22.81-32.79-29.68-69.45-24.62-107.27-10-44.9-35.44-74.61-7-108.55,3.7-54.37-17.76-66.81,6.57-93.52,16.48-59.29-12.52-77.31,14.75-105.72,43.54l-33.07-.66c-89.43,52.7-133.86,160-149.61,215.19C1447,285.81,1402.67,178.5,1313.25,125.8l-33.06.66c-28.46-28.79-46.47-56.06-105.76-43.54-26.72-9.91-39.1-34.24-93.52-16.48-22.27-7-42.76-21.69-66.88-20.94L695.91,596.21"/><path class="cls-1" d="M836,277.36c237.26,122.32,375.19,221.27,450.75,305.54C1248.09,738,1046.21,745.08,972.39,740.73c15.12-7,27.73-15.47,32.2-28.41-18.52-13.16-84.2-1.39-130.05-27.14,17.62-3.66,25.86-7.21,34.09-20.21-43.31-13.81-90-25.72-117.42-48.61,14.81.18,28.64,3.32,48-10.1-38.8-20.91-80.2-37.48-112.37-69.44,20.06-.49,41.69-.2,48-7.58-35.51-22-65.48-46.46-90.28-73.22,28.07,3.38,39.93.47,46.72-4.42-26.85-27.5-60.82-50.72-77-84.6,20.84,7.19,39.91,9.94,53.66-.62-9.12-20.58-48.2-32.72-70.71-80.81,22,2.13,45.22,4.78,49.88,0-10.19-41.5-27.66-64.83-44.8-89,47-.7,118.11.18,114.9-3.79l-29-29.66c45.88-12.36,92.82,2,126.9,12.62,15.29-12.07-.28-27.34-19-42.93C875,138,910.27,147,942.11,159.32c17-15.35-11-30.72-24.62-46.08,60.23,11.42,85.75,27.49,111.11,43.56,18.4-17.63,1.05-32.63-11.36-48,45.41,16.82,68.8,38.54,93.43,60,8.34-11.27,21.21-19.54,5.68-46.72,32.24,18.58,56.53,40.49,74.49,65,20-12.7,11.89-30.07,12-46.08,33.51,27.26,54.78,56.27,80.81,84.59,5.24-3.82,9.83-16.76,13.89-37.24,79.94,77.55,192.9,272.91,29,350.36-139.46-115-306-198.63-490.59-261.34l0,0m1258.89,0C1857.69,399.69,1719.76,498.61,1644.2,582.9c38.7,155.1,240.57,162.18,314.38,157.83-15.11-7-27.72-15.47-32.19-28.41,18.52-13.16,84.2-1.39,130-27.14-17.61-3.66-25.84-7.21-34.08-20.21,43.32-13.81,90-25.72,117.42-48.61-14.81.18-28.64,3.32-48-10.1,38.8-20.91,80.21-37.48,112.37-69.44-20.06-.49-41.69-.2-48-7.58,35.51-22,65.47-46.46,90.27-73.22-28.08,3.38-39.93.47-46.71-4.42,26.84-27.5,60.82-50.72,77-84.6-20.84,7.19-39.92,9.94-53.66-.62,9.12-20.58,48.21-32.72,70.7-80.81-21.94,2.13-45.21,4.78-49.87,0,10.21-41.51,27.68-64.84,44.82-89-47-.69-118.12.19-114.9-3.78l29-29.68c-45.87-12.34-92.81,2-126.89,12.63-15.29-12.07.27-27.34,18.94-42.92-39,5.2-74.21,14.16-106,26.51-17-15.36,11-30.72,24.62-46.08-60.23,11.42-85.75,27.48-111.11,43.56-18.4-17.64-1.05-32.63,11.36-48-45.41,16.82-68.81,38.54-93.43,60-8.35-11.27-21.21-19.53-5.69-46.72-32.23,18.59-56.52,40.49-74.48,65-20-12.71-11.89-30.08-12-46.09-33.51,27.26-54.78,56.26-80.81,84.59-5.24-3.82-9.83-16.76-13.89-37.25-79.94,77.56-192.9,272.92-29,350.37,139.38-115,305.93-198.64,490.52-261.35h0"/><path class="cls-2" d="M1752.8,1856.71c.83,144.73-125.75,262.68-282.69,263.44s-284.87-116-285.7-260.68v-2.76c-.82-144.73,125.74-262.68,282.7-263.44S1752,1709.21,1752.8,1854v2.76m-448.63-748.62c117.75,77.15,139,252,47.41,390.59s-261.27,188.37-379,111.22-139-252-47.41-390.59,261.27-188.37,379-111.22m317.82-14c-117.74,77.15-139,252-47.41,390.6s261.27,188.37,379,111.21,139-252,47.41-390.6S1739.76,1017,1622,1094.12m-906.36,140.1c127.13-34.08,42.92,526-60.52,480-113.79-91.52-150.44-359.55,60.52-480m1469.24-7c-127.15-34.07-42.93,526,60.52,480.05,113.79-91.53,150.44-359.59-60.52-480m-432-417.06c219.4-37,402,93.31,394.6,331.22-7.21,91.22-475.43-317.64-394.6-331.22m-606.21-7c-219.42-37.05-402,93.33-394.61,331.23,7.22,91.21,475.45-317.65,394.61-331.23m315.17-55.48c-130.95-3.41-256.63,97.18-256.94,155.53-.36,70.9,103.54,143.49,257.83,145.33,157.55,1.13,258.1-58.1,258.6-131.27.58-82.9-143.3-170.88-259.49-169.6h0m8,1453.83c114.17-5,267.37,36.77,267.68,92.17,1.89,53.79-138.94,175.32-275.25,173-141.16,6.09-279.58-115.64-277.77-157.83-2.11-61.85,171.88-110.15,285.34-107.32m-421.7-328.29c81.28,97.93,118.34,270,50.51,320.69-64.18,38.72-220,22.78-330.8-136.36-74.71-133.53-65.08-269.41-12.63-309.33,78.44-47.78,199.64,16.76,292.93,125h0m827.14-31c-88,103-136.92,290.9-72.77,351.42,61.35,47,226,40.44,347.67-128.35,88.32-113.36,58.73-302.68,8.27-353-74.94-58-182.54,16.23-283.17,129.85v0"/><path class="cls-3" d="M20.45,1579.46c-17.21-158.27,41.13-322.62,154.22-434.62,20-17.5,52.68-15.32,70.65,4.12,21.7,17.74,24.14,53.49,4.46,73.58-70.69,71.72-115.59,168.66-122.93,269.19-10.13,122.07,36.19,246.8,122.2,333.73,21.19,20,18.78,57.38-3.76,75.42-18.36,19.44-51.93,21.06-71.37,2.4-86.2-86.15-141-202.65-153.47-323.82Z"/><path class="cls-3" d="M220.34,1556.07c-9.92-99.89,28.33-203.14,100.66-272.64,19.81-19,53.9-16.83,72.23,3.22,22,18.2,23.45,54.68,2.86,74.46-40.22,39.18-65.63,93.44-68.7,149.63C322.85,1574.51,348,1639,392.85,1684.3c12.51,11.14,20.2,27.68,18.2,44.61-2.76,39.3-55.23,66.59-86.72,39.51-59.31-54.67-96-132.33-104-212.35Z"/><path class="cls-3" d="M2889.92,1469.89c17.22,158.27-41.12,322.62-154.22,434.63-20,17.5-52.68,15.32-70.65-4.13-21.7-17.73-24.13-53.48-4.46-73.58,70.7-71.71,115.59-168.66,122.94-269.18,10.12-122.08-36.2-246.81-122.21-333.73-21.19-20.05-18.77-57.38,3.77-75.43,18.35-19.44,51.92-21.06,71.36-2.39,86.2,86.15,141,202.65,153.47,323.81Z"/><path class="cls-3" d="M2690,1493.42c9.92,99.89-28.32,203.14-100.66,272.64-19.81,19-53.9,16.83-72.23-3.22-22-18.2-23.44-54.68-2.85-74.46,40.21-39.18,65.63-93.44,68.69-149.63,4.54-63.76-20.64-128.28-65.45-173.56-12.51-11.14-20.2-27.67-18.21-44.61,2.76-39.3,55.23-66.59,86.73-39.51,59.3,54.67,96,132.33,104,212.35Z"/></svg>