<?xml version="1.0" encoding="UTF-8" standalone="no"?>
<!-- Generator: Adobe Illustrator 16.0.0, SVG Export Plug-In . SVG Version: 6.00 Build 0)  -->

<svg
   xmlns:dc="http://purl.org/dc/elements/1.1/"
   xmlns:cc="http://creativecommons.org/ns#"
   xmlns:rdf="http://www.w3.org/1999/02/22-rdf-syntax-ns#"
   xmlns:svg="http://www.w3.org/2000/svg"
   xmlns="http://www.w3.org/2000/svg"
   xmlns:sodipodi="http://sodipodi.sourceforge.net/DTD/sodipodi-0.dtd"
   xmlns:inkscape="http://www.inkscape.org/namespaces/inkscape"
   version="1.1"
   id="Layer_1"
   x="0px"
   y="0px"
   width="200"
   height="178.07664"
   viewBox="0 0 200 178.07664"
   enable-background="new 0 0 841.89 595.275"
   xml:space="preserve"
   inkscape:version="0.48.2 r9819"
   sodipodi:docname="Kristelig Folkeparti Logo.svg"><metadata
   id="metadata9"><rdf:RDF><cc:Work
       rdf:about=""><dc:format>image/svg+xml</dc:format><dc:type
         rdf:resource="http://purl.org/dc/dcmitype/StillImage" /></cc:Work></rdf:RDF></metadata><defs
   id="defs7" /><sodipodi:namedview
   pagecolor="#ffffff"
   bordercolor="#666666"
   borderopacity="1"
   objecttolerance="10"
   gridtolerance="10"
   guidetolerance="10"
   inkscape:pageopacity="0"
   inkscape:pageshadow="2"
   inkscape:window-width="977"
   inkscape:window-height="651"
   id="namedview5"
   showgrid="false"
   fit-margin-top="0"
   fit-margin-left="0"
   fit-margin-right="0"
   fit-margin-bottom="0"
   inkscape:zoom="1"
   inkscape:cx="195.13971"
   inkscape:cy="132.02426"
   inkscape:window-x="1920"
   inkscape:window-y="0"
   inkscape:window-maximized="0"
   inkscape:current-layer="Layer_1" />
<path
   d="M 176.24647,6.5969526 C 142.48791,-11.85393 99.617244,10.405146 85.037461,48.459158 87.032421,-3.9170257 37.15243,-3.2710102 16.215335,14.636698 -4.7197631,32.543411 -3.9459423,71.153575 10.33929,91.044265 c 0,0 1.518685,-1.745341 0.455306,-3.954973 C 5.3029638,75.648725 -2.1426902,43.797262 19.731977,26.100229 39.181339,10.364209 75.950309,12.204404 72.60241,64.048402 93.742197,56.038608 90.816655,33.015691 120.33866,19.048974 c 22.06538,-10.4390888 54.33321,-4.566042 59.72,23.48721 4.1347,21.529192 0.71391,50.325312 -62.78033,89.303916 1.23911,-8.97932 3.93001,-29.40519 4.86658,-38.863779 3.78823,-1.391879 11.18396,-4.71182 14.64468,-6.725751 7.90296,-4.603985 13.29375,-7.446653 16.25723,-19.566185 -12.58782,6.000856 -28.06723,10.784566 -29.23345,12.174448 2.39834,-23.127756 8.14958,-36.732026 25.60997,-41.367961 4.11373,-1.093334 4.16166,-3.729317 4.16166,-3.729317 -24.77624,0 -40.76887,5.339863 -46.63194,50.367248 -0.027,0.20968 -0.0609,0.418362 -0.0929,0.627044 -7.35878,3.166176 -16.115436,6.336345 -20.645533,13.904812 1.23412,-8.967336 1.690424,-11.459538 2.48721,-15.460441 -8.625855,2.564093 -16.930201,9.164035 -19.610117,25.072792 -0.806771,4.78571 -4.041841,23.27853 -5.268971,34.04812 -3.844142,-0.68097 -14.03661,-23.26355 -17.585203,-26.10223 18.209252,-12.42007 19.147822,-15.45245 21.580115,-27.991343 -7.953879,5.436715 -27.810621,14.117483 -30.88893,17.194793 0.242631,-2.28352 4.497147,-52.275336 8.966337,-63.734873 -11.545407,0 -19.230695,14.573792 -21.138788,27.588959 C 24.226128,72.877947 13.670214,165.375 6.1436827,178.07664 24.564612,172.9195 29.716761,161.69161 34.29179,124.91864 c 12.610783,22.52268 27.301397,38.55126 37.022583,32.29779 5.542554,-3.56357 7.019304,-8.43016 13.554345,-46.63094 1.429821,-7.58844 18.055482,-9.7801 19.946602,-11.672216 -1.83521,14.851366 -3.43377,28.723226 -5.196079,41.215196 -24.35988,17.59618 -23.871624,33.71262 -15.660137,35.60774 14.021634,3.23507 28.209006,-18.38 32.348706,-37.82936 21.00798,-11.2189 35.80144,-21.22965 48.06775,-30.33477 C 201.54791,79.979126 216.03783,28.34381 176.24647,6.5969526 z M 86.447313,169.47674 c -3.696368,-0.91161 -3.220093,-11.27481 12.194417,-22.93105 -2.457255,15.33663 -6.776673,24.26702 -12.194417,22.93105 z"
   id="path3"
   inkscape:connector-curvature="0"
   style="fill:#dc0814" />
</svg>